<?xml version="1.0" encoding="UTF-8"?>
<!DOCTYPE svg PUBLIC "-//W3C//DTD SVG 1.1//EN" "http://www.w3.org/Graphics/SVG/1.1/DTD/svg11.dtd">
<!-- Creator: CorelDRAW -->
<svg xmlns="http://www.w3.org/2000/svg" xml:space="preserve" width="500px" height="569px" shape-rendering="geometricPrecision" text-rendering="geometricPrecision" image-rendering="optimizeQuality" fill-rule="evenodd" clip-rule="evenodd"
viewBox="0 0 500 569"
 xmlns:xlink="http://www.w3.org/1999/xlink"
 xmlns:svg="http://www.w3.org/2000/svg"
 version="1.0">
 <g id="Layer_x0020_1">
  <metadata id="CorelCorpID_0Corel-Layer"/>
  <path id="path1937" fill="black" stroke="black" stroke-width="0.992126" d="M0.653103 0.782363l498.933 -0.121606 0.274677 365.808c-25.8032,114.437 -119.035,201.209 -249.35,201.29 -130.315,0.0810709 -214.788,-78.4004 -250.145,-202.878l0.286583 -364.099z"/>
  <path id="path1937_0" fill="#BF9F4F" stroke="black" stroke-width="0.992126" d="M499.803 289.465l0.0581103 77.0046c-25.8032,114.437 -119.035,201.209 -249.35,201.29 -130.315,0.0810709 -214.788,-78.4004 -250.145,-202.878l0.0663307 -84.1028c8.30041,0.144 19.8462,15.1603 28.3813,15.7881 18.4927,1.3612 38.0418,-27.6982 56.5586,-27.0391 18.5193,0.659339 35.087,27.3127 53.2038,28.4156 18.4445,1.1228 39.7962,-28.4584 57.3356,-27.8739 19.8814,0.66189 35.0076,27.3668 55.7569,27.7708 18.3087,0.356599 39.4288,-27.4811 57.0646,-26.5978 19.9885,1.00091 35.8586,26.6576 56.456,26.1916 15.6198,-0.35348 38.5441,-26.4206 55.1121,-25.7224 21.3029,0.897166 37.6056,27.0678 58.1281,26.3812 8.4172,-0.28148 13.0728,-8.77153 21.3732,-8.62753z"/>
  <path fill="#BF9F4F" d="M289.581 96.8647c8.20007,-11.2626 11.4361,-25.0073 39.492,-25.7213 63.2302,0.112252 74.9586,103.228 106.543,105.202 14.1871,-1.38558 -0.168945,-20.7658 12.7772,-20.2896 9.10092,-0.413858 15.7195,10.3416 15.5126,16.1331 0.0229606,11.2881 -14.8238,20.0194 -25.3718,20.2136 -27.5017,0.506268 -75.0337,-91.5696 -108.772,-89.0431 -5.26933,0.394583 -22.8212,1.72347 -32.777,19.6503l-87.3922 0.192189c-9.95585,-17.9269 -26.187,-19.4479 -31.4561,-19.8425 -33.7385,-2.52624 -81.2705,89.5493 -108.772,89.0431 -10.548,-0.194173 -25.3948,-8.92545 -25.3718,-20.2136 -0.206929,-5.79147 6.41169,-16.547 15.5126,-16.1331 12.9461,-0.476221 -1.40995,18.904 12.7772,20.2896 31.5842,-1.97376 43.3126,-105.09 106.543,-105.202 28.0559,0.714048 31.292,14.4587 39.492,25.7213l71.2642 0z"/>
  <path fill="#BF9F4F" stroke="black" stroke-width="2.83465" d="M74.0855 166.914c-2.27225,-6.67503 5.69084,-8.07591 9.00199,-7.92567l170.33 108.382 172.806 -106.04c3.5161,-0.827433 11.0648,0.826583 8.9966,7.44548l-172.507 106.561c-7.13367,3.77802 -11.1643,5.07402 -18.608,-0.145417l-170.02 -108.278z"/>
  <rect fill="#BF9F4F" stroke="black" stroke-width="1.98425" x="245.036" y="96.4874" width="16.7536" height="161.952"/>
  <polygon fill="#BF9F4F" stroke="black" stroke-width="1.98425" points="254.344,15.2014 286.61,74.7698 262.41,70.4262 262.41,96.177 245.036,96.177 245.036,70.4262 222.698,75.3903 "/>
  <polygon fill="#BF9F4F" stroke="black" stroke-width="0.992126" points="262.1,172.81 285.059,190.804 281.646,247.27 262.1,232.378 "/>
  <path fill="black" stroke="black" stroke-width="0.992126" d="M153.199 502.609c-1.6475,1.01282 -1.43433,4.81663 -0.290551,7.68983l30.6825 21.9181c1.54318,0.427181 6.18747,-1.31641 5.87027,-3.99033 -0.444189,-7.5257 0.662457,-18.1528 4.5601,-23.8181 3.66633,-6.18775 4.54167,-21.3687 25.5742,-39.651 67.2092,-46.6345 83.8707,-57.2962 124.101,-93.6973l1.50605 0.885544c7.96876,-2.82898 20.2793,-9.06917 24.8372,-8.17711 11.5838,4.64173 18.5162,11.1441 16.4554,17.9566 -8.03934,14.5205 -11.4741,24.1784 -2.11606,49.8657 44.6389,-21.8395 68.5007,-44.9198 75.9266,-87.8471 -28.7901,-17.2746 -48.9164,8.49856 -56.6799,3.88035 -4.10514,-1.9868 -10.6912,-7.075 -10.7649,-12.4733l5.30277 -10.3751c-5.13383,-6.07522 -9.02693,-12.7707 -18.1919,-15.745 -17.5947,13.2321 -34.9112,26.2369 -51.8253,39.9229 -1.05704,0.983906 0.434835,3.91663 -2.57017,6.36152 -40.4201,32.8859 -84.348,65.4395 -133.283,94.8595 -1.97036,2.15688 -4.25055,2.14271 -5.91052,6.47008 -10.8544,22.5576 -15.1965,30.5396 -33.1835,45.9644z"/>
  <line fill="none" stroke="#4C4C4C" stroke-width="1.41732" x1="327.528" y1="353.035" x2="345.514" y2= "371.951" />
  <polygon fill="#666666" stroke="#666666" stroke-width="0.992126" points="252.481,409.475 274.809,425.911 250.62,444.517 227.672,427.461 "/>
  <path fill="black" stroke="black" stroke-width="0.992126" d="M348.946 504.094c1.63134,1.03861 1.3578,4.83874 0.168662,7.69352l-31.0261 21.4288c-1.54999,0.402803 -6.16592,-1.41421 -5.80649,-4.08303 0.563528,-7.51748 -0.374457,-18.161 -4.18195,-23.8873 -3.56769,-6.24501 -4.20236,-21.4382 -24.9423,-40.0516 -66.4614,-47.6941 -85.1228,-59.2385 -124.77,-96.2728l-3.04923 0.487559c-6.68948,-2.62375 -15.5497,-8.34832 -20.9993,-7.25074 -11.6561,4.45748 -17.7012,9.93884 -17.0725,18.2889 8.38404,17.7667 11.4191,23.4369 1.65487,48.9728 -44.2871,-22.5445 -67.7798,-46.0001 -74.5243,-89.04 29.0602,-16.816 48.7755,9.27298 56.6113,4.77836 4.13603,-1.92132 10.8017,-6.90463 10.961,-12.301l-5.13751 -10.4579c5.22936,-5.99301 9.22819,-12.6261 18.4391,-15.4548 17.3829,13.5094 34.4911,26.7871 51.1861,40.7395 1.04117,1.00063 -0.496914,3.90926 2.46898,6.40148 39.8937,33.5225 83.3001,66.7684 131.762,96.9605 1.93578,2.18778 4.21597,2.20961 5.80706,6.56277 10.4956,22.7268 14.7107,30.7769 32.4508,46.4848z"/>
  <line fill="none" stroke="#7F7F7F" stroke-width="1.41732" x1="157.897" y1="368.85" x2="176.814" y2= "349.933" />
  <g id="_46725200">
   <path id="path9185" fill="black" stroke="black" stroke-width="1.32661" d="M244.618 347.508c-9.37389,-5.35323 -15.4378,-16.7105 -13.748,-18.5959 1.68917,-1.88504 17.1431,8.36334 16.5708,16.348 -0.572032,7.98435 7.67396,10.5817 8.1669,0.585355 0.492662,-9.99638 11.7683,-18.7736 14.512,-16.7953 2.74365,1.9783 -3.19408,16.7128 -12.685,19.1546 -2.99764,1.56954 -3.5538,9.33052 1.3028,6.55937 4.85632,-2.77143 23.3875,7.91717 22.0314,11.3885 -1.35581,3.47159 -19.8763,-1.20246 -23.5463,-8.82199 -4.9303,-5.48164 -8.08186,-1.69484 -4.66583,3.2315 3.41575,4.92633 3.26693,22.5261 -1.39918,22.6386 -4.66611,0.112252 -6.51884,-14.2897 -2.18126,-22.2265 4.34296,-7.93616 0.622489,-8.64964 -5.30674,-3.27742 -6.37144,5.34019 -22.0272,10.2373 -23.351,7.02057 -1.32378,-3.21676 14.4009,-12.1215 22.0272,-10.2376 7.62633,1.88419 2.27225,-6.97181 2.27225,-6.97181z"/>
   <path id="path9187" fill="black" stroke="black" stroke-width="1.32661" d="M250.385 367.651c-6.08542,12.1584 -25.5011,4.5258 -13.9683,-9.36114 -15.5571,-4.23666 -8.63972,-23.3578 6.18123,-16.611 -4.59921,-16.268 23.4071,-14.0389 16.5504,1.1863 15.0494,-8.84098 20.509,14.0647 5.80706,16.467 12.4081,11.0336 -10.2648,21.0002 -14.5704,8.31884z"/>
   <circle id="circle9189" fill="black" stroke="black" stroke-width="1.32661" transform="matrix(3.53077 0.253051 -0.254331 3.54863 250.568 352.728)" r="2.28132"/>
  </g>
  <g id="_46769120">
   <path id="path9185_1" fill="black" stroke="black" stroke-width="1.32661" d="M243.375 501.545c-9.37389,-5.35323 -15.4378,-16.7105 -13.748,-18.5959 1.68917,-1.88504 17.1431,8.36334 16.5708,16.348 -0.572032,7.98435 7.67396,10.5817 8.1669,0.585355 0.492662,-9.99638 11.7683,-18.7736 14.512,-16.7953 2.74365,1.9783 -3.19408,16.7128 -12.685,19.1546 -2.99764,1.56954 -3.5538,9.33052 1.3028,6.55937 4.85632,-2.77143 23.3875,7.91717 22.0314,11.3885 -1.35581,3.47159 -19.8763,-1.20246 -23.5463,-8.82199 -4.9303,-5.48164 -8.08186,-1.69484 -4.66583,3.2315 3.41575,4.92633 3.26693,22.5261 -1.39918,22.6386 -4.66611,0.112252 -6.51884,-14.2897 -2.18126,-22.2265 4.34296,-7.93616 0.622489,-8.64964 -5.30674,-3.27742 -6.37144,5.34019 -22.0272,10.2373 -23.351,7.02057 -1.32378,-3.21676 14.4009,-12.1215 22.0272,-10.2376 7.62633,1.88419 2.27225,-6.97181 2.27225,-6.97181z"/>
   <path id="path9187_2" fill="black" stroke="black" stroke-width="1.32661" d="M249.142 521.687c-6.08542,12.1584 -25.5011,4.5258 -13.9683,-9.36114 -15.5571,-4.23666 -8.63972,-23.3578 6.18123,-16.611 -4.59921,-16.268 23.4071,-14.0389 16.5504,1.1863 15.0494,-8.84098 20.509,14.0647 5.80706,16.467 12.4081,11.0336 -10.2648,21.0002 -14.5704,8.31884z"/>
   <circle id="circle9189_3" fill="black" stroke="black" stroke-width="1.32661" transform="matrix(3.53077 0.253051 -0.254331 3.54863 249.325 506.765)" r="2.28132"/>
  </g>
  <g id="_46716104">
   <path id="path9185_4" fill="black" stroke="black" stroke-width="1.32661" d="M331.647 423.348c-9.37389,-5.35323 -15.4378,-16.7105 -13.748,-18.5959 1.68917,-1.88504 17.1431,8.36334 16.5708,16.348 -0.572032,7.98435 7.67396,10.5817 8.1669,0.585355 0.492662,-9.99638 11.7683,-18.7736 14.512,-16.7953 2.74365,1.9783 -3.19408,16.7128 -12.685,19.1546 -2.99764,1.56954 -3.5538,9.33052 1.3028,6.55937 4.85632,-2.77143 23.3875,7.91717 22.0314,11.3885 -1.35581,3.47159 -19.8763,-1.20246 -23.5463,-8.82199 -4.9303,-5.48164 -8.08186,-1.69484 -4.66583,3.2315 3.41575,4.92633 3.26693,22.5261 -1.39918,22.6386 -4.66611,0.112252 -6.51884,-14.2897 -2.18126,-22.2265 4.34296,-7.93616 0.622489,-8.64964 -5.30674,-3.27742 -6.37144,5.34019 -22.0272,10.2373 -23.351,7.02057 -1.32378,-3.21676 14.4009,-12.1215 22.0272,-10.2376 7.62633,1.88419 2.27225,-6.97181 2.27225,-6.97181z"/>
   <path id="path9187_5" fill="black" stroke="black" stroke-width="1.32661" d="M337.414 443.491c-6.08542,12.1584 -25.5011,4.5258 -13.9683,-9.36114 -15.5571,-4.23666 -8.63972,-23.3578 6.18123,-16.611 -4.59921,-16.268 23.4071,-14.0389 16.5504,1.1863 15.0494,-8.84098 20.509,14.0647 5.80706,16.467 12.4081,11.0336 -10.2648,21.0002 -14.5704,8.31884z"/>
   <circle id="circle9189_6" fill="black" stroke="black" stroke-width="1.32661" transform="matrix(3.53077 0.253051 -0.254331 3.54863 337.598 428.568)" r="2.28132"/>
  </g>
  <g id="_46762792">
   <path id="path9185_7" fill="black" stroke="black" stroke-width="1.32661" d="M155.102 420.861c-9.37389,-5.35323 -15.4378,-16.7105 -13.748,-18.5959 1.68917,-1.88504 17.1431,8.36334 16.5708,16.348 -0.572032,7.98435 7.67396,10.5817 8.1669,0.585355 0.492662,-9.99638 11.7683,-18.7736 14.512,-16.7953 2.74365,1.9783 -3.19408,16.7128 -12.685,19.1546 -2.99764,1.56954 -3.5538,9.33052 1.3028,6.55937 4.85632,-2.77143 23.3875,7.91717 22.0314,11.3885 -1.35581,3.47159 -19.8763,-1.20246 -23.5463,-8.82199 -4.9303,-5.48164 -8.08186,-1.69484 -4.66583,3.2315 3.41575,4.92633 3.26693,22.5261 -1.39918,22.6386 -4.66611,0.112252 -6.51884,-14.2897 -2.18126,-22.2265 4.34296,-7.93616 0.622489,-8.64964 -5.30674,-3.27742 -6.37144,5.34019 -22.0272,10.2373 -23.351,7.02057 -1.32378,-3.21676 14.4009,-12.1215 22.0272,-10.2376 7.62633,1.88419 2.27225,-6.97181 2.27225,-6.97181z"/>
   <path id="path9187_8" fill="black" stroke="black" stroke-width="1.32661" d="M160.869 441.004c-6.08542,12.1584 -25.5011,4.5258 -13.9683,-9.36114 -15.5571,-4.23666 -8.63972,-23.3578 6.18123,-16.611 -4.59921,-16.268 23.4071,-14.0389 16.5504,1.1863 15.0494,-8.84098 20.509,14.0647 5.80706,16.467 12.4081,11.0336 -10.2648,21.0002 -14.5704,8.31884z"/>
   <circle id="circle9189_9" fill="black" stroke="black" stroke-width="1.32661" transform="matrix(3.53077 0.253051 -0.254331 3.54863 161.052 426.082)" r="2.28132"/>
  </g>
  <polygon fill="#BF9F4F" stroke="black" stroke-width="0.992126" points="244.855,172.705 221.897,190.7 225.309,247.165 244.855,232.273 "/>
 </g>
</svg>
